<svg width="26" height="25" viewBox="0 0 26 25" fill="none" xmlns="http://www.w3.org/2000/svg">
<path fill-rule="evenodd" clip-rule="evenodd" d="M3.09668 8.54574C3.09668 5.58147 5.52269 3.18848 8.50239 3.18848C10.0354 3.18848 11.3731 4.01436 12.2859 4.7709C12.7285 5.13777 13.0894 5.50347 13.3461 5.78576C13.6029 5.50347 13.9638 5.13777 14.4064 4.7709C15.3191 4.01436 16.6569 3.18848 18.1899 3.18848C21.1696 3.18848 23.5956 5.58147 23.5956 8.54574C23.5956 9.69618 23.3657 11.5995 22.0537 13.8755C20.7436 16.1484 18.3721 18.7624 14.1364 21.3663L14.1342 21.3677C13.8968 21.5122 13.6241 21.5886 13.3461 21.5886C13.0681 21.5886 12.7955 21.5122 12.558 21.3677L12.5558 21.3663C8.32018 18.7624 5.94871 16.1484 4.63858 13.8755C3.32661 11.5995 3.09668 9.69618 3.09668 8.54574ZM12.8958 6.9928L12.8958 6.99279L12.8927 6.98871L12.8774 6.96884C12.8632 6.95056 12.8411 6.9225 12.8115 6.88606C12.7522 6.81311 12.6632 6.70687 12.5477 6.57844C12.3159 6.32087 11.9809 5.9779 11.5687 5.63622C10.7282 4.93963 9.6441 4.31239 8.50239 4.31239C6.13264 4.31239 4.22059 6.2129 4.22059 8.54574C4.22059 9.53334 4.41449 11.2362 5.61231 13.3142C6.81185 15.3952 9.03579 17.8828 13.1432 20.4081C13.2044 20.4451 13.2746 20.4647 13.3461 20.4647C13.4177 20.4647 13.4879 20.4451 13.5491 20.4081C17.6565 17.8828 19.8804 15.3952 21.08 13.3142C22.2778 11.2362 22.4717 9.53334 22.4717 8.54574C22.4717 6.2129 20.5596 4.31239 18.1899 4.31239C17.0482 4.31239 15.964 4.93963 15.1236 5.63622C14.7114 5.9779 14.3763 6.32087 14.1446 6.57844C14.029 6.70687 13.94 6.81311 13.8808 6.88606C13.8512 6.9225 13.8291 6.95056 13.8149 6.96884L13.7996 6.98871L13.7965 6.99279L13.7965 6.9928L13.7963 6.99302C13.6902 7.13501 13.5234 7.21864 13.3461 7.21864C13.1689 7.21864 13.0021 7.13503 12.896 6.99306L12.8959 6.99302L12.8958 6.9928Z" fill="white"/>
</svg>
