<svg width="26" height="25" viewBox="0 0 26 25" fill="none" xmlns="http://www.w3.org/2000/svg">
<path fill-rule="evenodd" clip-rule="evenodd" d="M9.53523 4.52351C10.3907 3.66808 11.5509 3.1875 12.7606 3.1875C13.9704 3.1875 15.1306 3.66808 15.986 4.52351C16.8415 5.37894 17.3221 6.53915 17.3221 7.74892C17.3221 8.95868 16.8415 10.1189 15.986 10.9743C15.1306 11.8298 13.9704 12.3103 12.7606 12.3103C11.5509 12.3103 10.3907 11.8298 9.53523 10.9743C8.67979 10.1189 8.19922 8.95868 8.19922 7.74892C8.19922 6.53915 8.67979 5.37894 9.53523 4.52351ZM12.7606 11.1864C13.6723 11.1864 14.5467 10.8243 15.1913 10.1796C15.836 9.53495 16.1981 8.6606 16.1981 7.74892C16.1981 6.83723 15.836 5.96289 15.1913 5.31823C14.5467 4.67358 13.6723 4.31141 12.7606 4.31141C11.849 4.31141 10.9746 4.67358 10.33 5.31823C9.68529 5.96289 9.32313 6.83723 9.32313 7.74892C9.32313 8.6606 9.68529 9.53495 10.33 10.1796C10.9746 10.8243 11.849 11.1864 12.7606 11.1864Z" fill="white"/>
<path fill-rule="evenodd" clip-rule="evenodd" d="M12.5151 14.8455C8.82089 14.8455 6.61312 17.9754 5.5901 19.9705C5.51756 20.112 5.53677 20.2389 5.60343 20.3387C5.67404 20.4443 5.80939 20.5322 5.99571 20.5322H19.0354C19.2217 20.5322 19.3571 20.4443 19.4277 20.3386C19.4943 20.2389 19.5135 20.1119 19.4409 19.9704C18.4176 17.9753 16.2093 14.8455 12.5151 14.8455ZM4.5275 19.4256C5.57215 17.3884 8.07907 13.6514 12.5151 13.6514C16.9511 13.6514 19.4585 17.3882 20.5035 19.4254C21.0865 20.5621 20.1886 21.7263 19.0354 21.7263H5.99571C4.84252 21.7263 3.94467 20.5622 4.5275 19.4256Z" fill="white"/>
</svg>
