<svg width="26" height="25" viewBox="0 0 26 25" fill="none" xmlns="http://www.w3.org/2000/svg">
<path fill-rule="evenodd" clip-rule="evenodd" d="M3.87638 2.49902C4.41301 2.49949 4.9349 2.67464 5.36317 2.998C5.79144 3.32135 6.1028 3.77534 6.2502 4.29133L6.68016 5.79371H20.3762C20.6452 5.79388 20.9101 5.85995 21.1478 5.98615C21.3854 6.11235 21.5885 6.29483 21.7393 6.51765C21.8901 6.74046 21.9841 6.99683 22.013 7.26434C22.0418 7.53185 22.0047 7.80235 21.9049 8.05221L19.4767 14.1243C19.2933 14.5829 18.9766 14.9761 18.5676 15.253C18.1586 15.5299 17.6759 15.6778 17.182 15.6778H9.65526C9.11856 15.6778 8.59645 15.503 8.16787 15.1799C7.7393 14.8569 7.42756 14.4031 7.27979 13.8871L4.6671 4.74435C4.6181 4.57234 4.51443 4.42096 4.37178 4.31307C4.22913 4.20519 4.05523 4.14668 3.87638 4.14637H3.47113C3.25268 4.14637 3.04318 4.05959 2.88871 3.90512C2.73424 3.75065 2.64746 3.54115 2.64746 3.32269C2.64746 3.10424 2.73424 2.89474 2.88871 2.74027C3.04318 2.5858 3.25268 2.49902 3.47113 2.49902H3.87638ZM6.79191 7.17019L8.60307 13.5081C8.66861 13.7363 8.80682 13.9378 8.99644 14.0808C9.18627 14.2239 9.41753 14.3013 9.65526 14.3013C9.65526 14.3013 9.65525 14.3013 9.65526 14.3013H17.182C17.4008 14.3013 17.6148 14.2358 17.796 14.1131C17.9771 13.9905 18.1174 13.8164 18.1986 13.6132C18.1986 13.6132 18.1986 13.6132 18.1986 13.6132L20.6266 7.54154C20.6431 7.50045 20.6492 7.45598 20.6444 7.41199C20.6397 7.36801 20.6242 7.32586 20.5994 7.28922C20.5746 7.25258 20.5412 7.22258 20.5022 7.20183C20.4632 7.18114 20.4198 7.17028 20.3757 7.17019C20.3755 7.17019 20.3758 7.17019 20.3757 7.17019H6.79191Z" fill="white"/>
<path fill-rule="evenodd" clip-rule="evenodd" d="M10.0609 21.0365C10.2237 21.0365 10.385 21.0044 10.5355 20.9421C10.686 20.8797 10.8227 20.7884 10.9379 20.6732C11.053 20.558 11.1444 20.4213 11.2067 20.2708C11.2691 20.1204 11.3011 19.9591 11.3011 19.7962C11.3011 19.6333 11.2691 19.4721 11.2067 19.3216C11.1444 19.1711 11.053 19.0344 10.9379 18.9192C10.8227 18.804 10.686 18.7127 10.5355 18.6503C10.385 18.588 10.2237 18.5559 10.0609 18.5559C9.73191 18.5559 9.41645 18.6866 9.18385 18.9192C8.95125 19.1518 8.82058 19.4673 8.82058 19.7962C8.82058 20.1251 8.95125 20.4406 9.18385 20.6732C9.41645 20.9058 9.73191 21.0365 10.0609 21.0365ZM11.0065 22.0791C10.7067 22.2033 10.3854 22.2672 10.0609 22.2672C9.4055 22.2672 8.77699 22.0069 8.31359 21.5435C7.85018 21.0801 7.58984 20.4516 7.58984 19.7962C7.58984 19.1409 7.85018 18.5123 8.31359 18.0489C8.77699 17.5855 9.4055 17.3252 10.0609 17.3252C10.3854 17.3252 10.7067 17.3891 11.0065 17.5133C11.3063 17.6375 11.5787 17.8195 11.8081 18.0489C12.0376 18.2784 12.2196 18.5508 12.3438 18.8506C12.468 19.1504 12.5319 19.4717 12.5319 19.7962C12.5319 20.1207 12.468 20.442 12.3438 20.7418C12.2196 21.0416 12.0376 21.314 11.8081 21.5435C11.5787 21.7729 11.3063 21.9549 11.0065 22.0791Z" fill="white"/>
<path fill-rule="evenodd" clip-rule="evenodd" d="M16.6497 21.0365C16.8126 21.0365 16.9739 21.0044 17.1244 20.9421C17.2748 20.8797 17.4116 20.7884 17.5267 20.6732C17.6419 20.558 17.7333 20.4213 17.7956 20.2708C17.8579 20.1204 17.89 19.9591 17.89 19.7962C17.89 19.6333 17.8579 19.4721 17.7956 19.3216C17.7333 19.1711 17.6419 19.0344 17.5267 18.9192C17.4116 18.804 17.2748 18.7127 17.1244 18.6503C16.9739 18.588 16.8126 18.5559 16.6497 18.5559C16.3208 18.5559 16.0053 18.6866 15.7727 18.9192C15.5401 19.1518 15.4094 19.4673 15.4094 19.7962C15.4094 20.1251 15.5401 20.4406 15.7727 20.6732C16.0053 20.9058 16.3208 21.0365 16.6497 21.0365ZM17.5953 22.0791C17.2955 22.2033 16.9742 22.2672 16.6497 22.2672C15.9944 22.2672 15.3659 22.0069 14.9025 21.5435C14.439 21.0801 14.1787 20.4516 14.1787 19.7962C14.1787 19.1409 14.439 18.5123 14.9025 18.0489C15.3659 17.5855 15.9944 17.3252 16.6497 17.3252C16.9742 17.3252 17.2955 17.3891 17.5953 17.5133C17.8951 17.6375 18.1675 17.8195 18.397 18.0489C18.6265 18.2784 18.8085 18.5508 18.9326 18.8506C19.0568 19.1504 19.1207 19.4717 19.1207 19.7962C19.1207 20.1207 19.0568 20.442 18.9326 20.7418C18.8085 21.0416 18.6265 21.314 18.397 21.5435C18.1675 21.7729 17.8951 21.9549 17.5953 22.0791Z" fill="white"/>
</svg>
