<svg width="40" height="40" viewBox="0 0 40 40" fill="none" xmlns="http://www.w3.org/2000/svg">
<path d="M36.6667 8.48878C35.1777 5.43322 30.8889 2.93322 25.9 4.38878C23.5161 5.07738 21.4361 6.5541 20 8.57767C18.5639 6.5541 16.484 5.07738 14.1 4.38878C9.10002 2.95545 4.82224 5.43322 3.33335 8.48878C1.24446 12.7666 2.11112 17.5776 5.91112 22.7888C8.88891 26.8666 13.1445 30.9999 19.3223 35.7999C19.5175 35.9522 19.758 36.0348 20.0056 36.0348C20.2532 36.0348 20.4937 35.9522 20.6889 35.7999C26.8556 31.011 31.1223 26.911 34.1 22.7888C37.8889 17.5776 38.7556 12.7666 36.6667 8.48878Z" fill="#FF654C"/>
</svg>
