<svg width="25" height="25" viewBox="0 0 25 25" fill="none" xmlns="http://www.w3.org/2000/svg">
<path fill-rule="evenodd" clip-rule="evenodd" d="M10.7094 3.10591C11.1618 2.67824 11.7607 2.43994 12.3833 2.43994C13.0058 2.43994 13.6048 2.67824 14.0572 3.10591C14.0572 3.10594 14.0572 3.10589 14.0572 3.10591L20.9754 9.64415C21.4022 10.0474 21.7422 10.5335 21.9745 11.0727C22.2068 11.6118 22.3266 12.1928 22.3266 12.7799C22.3266 12.7799 22.3266 12.7799 22.3266 12.7799V20.1233C22.3266 20.7695 22.0699 21.3893 21.6129 21.8463C21.1559 22.3032 20.5362 22.5599 19.8899 22.5599H4.87661C4.23036 22.5599 3.61059 22.3032 3.15362 21.8463C2.69666 21.3893 2.43994 20.7695 2.43994 20.1233V12.7799C2.43994 12.7799 2.43994 12.78 2.43994 12.7799C2.43989 12.1928 2.55969 11.6118 2.79201 11.0727C3.02433 10.5335 3.36428 10.0474 3.79103 9.64421M3.79103 9.64421L10.7094 3.10591C10.7094 3.10589 10.7093 3.10594 10.7094 3.10591M12.3833 3.55994C12.0468 3.55994 11.7232 3.68872 11.4787 3.91984L4.56032 10.4582C4.24435 10.7567 3.9926 11.1167 3.8206 11.5159C3.64859 11.915 3.5599 12.3452 3.55994 12.7798V20.1233C3.55994 20.4725 3.69866 20.8074 3.94558 21.0543C4.19251 21.3012 4.52741 21.4399 4.87661 21.4399H19.8899C20.2391 21.4399 20.574 21.3012 20.8209 21.0543C21.0679 20.8074 21.2066 20.4725 21.2066 20.1233V12.7799C21.2066 12.3452 21.1179 11.915 20.9459 11.5159C20.7739 11.1167 20.5222 10.7568 20.2063 10.4583L13.2879 3.91991C13.0434 3.68879 12.7197 3.55994 12.3833 3.55994Z" fill="black"/>
</svg>
