<svg width="29" height="30" viewBox="0 0 29 30" fill="none" xmlns="http://www.w3.org/2000/svg">
<path d="M24.9925 19.5421V10.0211C24.9921 9.60371 24.8819 9.19375 24.673 8.83237C24.4641 8.47099 24.1639 8.1709 23.8024 7.9622L15.4715 3.20171C15.1097 2.99279 14.6992 2.88281 14.2814 2.88281C13.8636 2.88281 13.4531 2.99279 13.0913 3.20171L4.76044 7.9622C4.39895 8.1709 4.0987 8.47099 3.88981 8.83237C3.68093 9.19375 3.57074 9.60371 3.57031 10.0211V19.5421C3.57074 19.9595 3.68093 20.3695 3.88981 20.7308C4.0987 21.0922 4.39895 21.3923 4.76044 21.601L13.0913 26.3615C13.4531 26.5704 13.8636 26.6804 14.2814 26.6804C14.6992 26.6804 15.1097 26.5704 15.4715 26.3615L23.8024 21.601C24.1639 21.3923 24.4641 21.0922 24.673 20.7308C24.8819 20.3695 24.9921 19.9595 24.9925 19.5421Z" stroke="#B33535" stroke-width="1.78519" stroke-linecap="round" stroke-linejoin="round"/>
<path d="M3.8916 8.7832L14.2814 14.7933L24.6712 8.7832" stroke="#B33535" stroke-width="1.78519" stroke-linecap="round" stroke-linejoin="round"/>
<path d="M14.2812 26.7782V14.7817" stroke="#B33535" stroke-width="1.78519" stroke-linecap="round" stroke-linejoin="round"/>
</svg>
