<svg width="126" height="42" viewBox="0 0 126 42" fill="none" xmlns="http://www.w3.org/2000/svg">
<path d="M50.9274 27.567C49.3598 26.4821 48.5772 25.5027 48.5798 24.6287C48.5665 24.4057 48.6051 24.1827 48.6923 23.9771C48.7796 23.7715 48.9133 23.5888 49.0828 23.4435C49.4748 23.1393 49.9632 22.9865 50.4586 23.0128C51.3313 23.0128 52.4632 23.3939 53.8619 24.1561V19.5333C52.6198 18.9764 51.2749 18.6856 49.9136 18.6797C49.1055 18.6404 48.2981 18.7707 47.5433 19.0621C46.7885 19.3535 46.103 19.7996 45.5309 20.3717C44.9588 20.9439 44.5127 21.6293 44.2213 22.3841C43.9299 23.1389 43.7996 23.9463 43.8389 24.7545C43.8279 26.0324 44.2097 27.2829 44.9326 28.3368C45.9248 29.6756 47.1177 30.8531 48.4693 31.8277C48.9961 32.2064 49.4737 32.6494 49.8908 33.1464C50.1538 33.4785 50.2986 33.8889 50.3024 34.3125C50.3131 34.5528 50.2733 34.7927 50.1853 35.0166C50.0973 35.2405 49.9632 35.4434 49.7917 35.6121C49.4077 35.9522 48.9053 36.1275 48.393 36.0999C47.3768 36.0999 46.1229 35.6642 44.6315 34.7927V39.6137C45.8502 40.2164 47.1898 40.5343 48.5493 40.5436C50.3092 40.6054 52.0228 39.973 53.3207 38.7829C53.9327 38.2166 54.4169 37.5263 54.7409 36.7581C55.0649 35.9898 55.2213 35.1613 55.1995 34.3278C55.2184 32.8505 54.7088 31.4152 53.7628 30.2805C52.9459 29.2509 51.9919 28.3379 50.9274 27.567Z" fill="#B33535"/>
<path d="M30.8125 19.2363L35.5191 24.3584V39.9836H40.2296V19.2363H35.5191H30.8125Z" fill="#B33535"/>
<path d="M9.73374 19.2363L5.29008 28.9964H5.21386V19.2363H3.81521H0.522473L0.503418 24.3622V39.9874H5.21386V31.3592H5.29008L9.29928 39.9874H14.4747L9.8595 29.8386L14.6767 19.2363H9.73374Z" fill="#B33535"/>
<path d="M21.3537 19.252L15.8506 39.9878H20.6525L21.4642 36.5197H26.4529L27.2456 39.9878H32.1351L26.6358 19.252H21.3537ZM22.3332 32.8078C23.0064 29.792 23.5298 26.8486 23.9033 23.9776H23.9643C24.3149 26.7724 24.8434 29.7107 25.5497 32.7926L22.3332 32.8078Z" fill="#B33535"/>
<path d="M84.0719 30.647C84.9894 30.1835 85.7356 29.4401 86.2023 28.5242C86.6772 27.6256 86.927 26.6252 86.9302 25.6088C86.9302 23.655 86.2874 22.1064 85.0018 20.9631C83.7162 19.8198 81.9657 19.2494 79.7502 19.252H74.2661V40.003H78.9727V30.5517H79.0528L82.8638 40.003H87.8372L84.0719 30.647ZM78.9727 28.1888V23.265C80.0932 23.2955 80.8935 23.5178 81.3737 23.9319C81.8539 24.346 82.0952 25.0346 82.0978 25.9975C82.0978 27.4177 81.0561 28.1482 78.9727 28.1888Z" fill="#B33535"/>
<path d="M65.1842 31.797H69.3649V27.4905H65.1842V23.6681H70.0013V19.2549H60.4737H55.7671L60.4737 24.3769V40.0021H70.0318V35.5737H65.1842V31.797Z" fill="#B33535"/>
<path d="M0.923957 16V3.73106H3.92303C4.96311 3.73106 5.77095 3.86738 6.34653 4.14002C6.9322 4.40257 7.34622 4.82163 7.58857 5.39721C7.83092 5.96269 7.95209 6.68974 7.95209 7.57836V12.0467C7.95209 12.9555 7.83092 13.7027 7.58857 14.2884C7.34622 14.8741 6.93725 15.3083 6.36167 15.591C5.79619 15.8637 5.00351 16 3.98362 16H0.923957ZM3.42319 14.2581H3.95333C4.41783 14.2581 4.74601 14.1874 4.93787 14.0461C5.13983 13.8946 5.26605 13.6775 5.31654 13.3947C5.36703 13.1019 5.39228 12.7434 5.39228 12.3193V7.26027C5.39228 6.83616 5.35693 6.49788 5.28625 6.24543C5.22566 5.98289 5.09439 5.79103 4.89243 5.66985C4.70057 5.54868 4.38249 5.48809 3.93818 5.48809H3.42319V14.2581ZM10.2126 16V3.73106H15.5595V5.4578H12.7119V8.71437H14.9082V10.4563H12.7119V14.3036H15.5898V16H10.2126ZM17.46 16V3.73106H20.6409C21.4689 3.73106 22.1758 3.82699 22.7614 4.01885C23.3572 4.20061 23.8116 4.52879 24.1247 5.00339C24.4478 5.47799 24.6094 6.13436 24.6094 6.97248C24.6094 7.47738 24.5639 7.92673 24.473 8.32055C24.3923 8.70427 24.2408 9.04255 24.0186 9.33539C23.8066 9.61813 23.5036 9.84533 23.1098 10.017L24.8063 16H22.2464L20.8378 10.4411H19.9593V16H17.46ZM19.9593 8.95672H20.6863C21.0902 8.95672 21.4083 8.89108 21.6406 8.75981C21.8728 8.62854 22.0344 8.43163 22.1253 8.16908C22.2263 7.89644 22.2767 7.56321 22.2767 7.16939C22.2767 6.60391 22.1707 6.17475 21.9587 5.88191C21.7567 5.57897 21.373 5.42751 20.8075 5.42751H19.9593V8.95672ZM32.3949 16L30.8045 3.73106H32.9251L33.7733 11.2287L34.8487 3.74621H36.53L37.6509 11.2136L38.4991 3.73106H40.5894L39.0141 16H36.8936L35.697 8.22967L34.5609 16H32.3949ZM42.56 16V3.73106H47.9069V5.4578H45.0592V8.71437H47.2555V10.4563H45.0592V14.3036H47.9371V16H42.56ZM49.8377 16V3.73106H52.3218V16H49.8377ZM54.8065 16V3.73106H56.5484L59.2748 10.123V3.73106H61.3348V16H59.6686L56.9422 9.21422V16H54.8065Z" fill="white"/>
<path d="M88.5654 40.3291V38.1025H90.7466V40.3291H88.5654ZM94.5094 40.4806C94.0954 40.4806 93.7369 40.3745 93.4339 40.1625C93.1411 39.9504 92.919 39.6828 92.7675 39.3597C92.616 39.0366 92.5403 38.7033 92.5403 38.36C92.5403 37.8147 92.6463 37.3553 92.8584 36.9816C93.0704 36.608 93.3481 36.295 93.6914 36.0425C94.0348 35.7901 94.4185 35.573 94.8426 35.3912C95.2667 35.2095 95.6908 35.0429 96.1149 34.8914V34.0735C96.1149 33.8816 96.0998 33.715 96.0695 33.5736C96.0392 33.4322 95.9786 33.3262 95.8877 33.2555C95.8069 33.1747 95.6858 33.1344 95.5242 33.1344C95.3626 33.1344 95.2364 33.1697 95.1455 33.2404C95.0648 33.301 95.0042 33.3969 94.9638 33.5282C94.9335 33.6493 94.9133 33.7857 94.9032 33.9371L94.8577 34.543L92.6917 34.4521C92.7422 33.4221 93.0098 32.6598 93.4945 32.165C93.9893 31.6702 94.7315 31.4228 95.7211 31.4228C96.6097 31.4228 97.2661 31.6702 97.6902 32.165C98.1143 32.6497 98.3264 33.2909 98.3264 34.0886V38.1631C98.3264 38.5064 98.3314 38.8144 98.3415 39.0871C98.3617 39.3496 98.3819 39.5869 98.4021 39.799C98.4324 40.0009 98.4576 40.1776 98.4778 40.3291H96.4179C96.3876 40.1069 96.3522 39.8646 96.3118 39.6021C96.2715 39.3395 96.2412 39.1628 96.221 39.0719C96.12 39.4354 95.9281 39.7636 95.6454 40.0565C95.3626 40.3392 94.984 40.4806 94.5094 40.4806ZM95.3424 38.8599C95.4535 38.8599 95.5595 38.8346 95.6605 38.7841C95.7615 38.7336 95.8473 38.668 95.918 38.5872C95.9988 38.5064 96.0644 38.4307 96.1149 38.36V35.9517C95.9029 36.0829 95.706 36.2142 95.5242 36.3455C95.3424 36.4667 95.1859 36.603 95.0547 36.7544C94.9234 36.9059 94.8224 37.0725 94.7517 37.2543C94.681 37.4361 94.6457 37.6431 94.6457 37.8753C94.6457 38.1783 94.7063 38.4206 94.8275 38.6024C94.9486 38.774 95.1203 38.8599 95.3424 38.8599ZM102.99 40.42C102.384 40.42 101.91 40.3291 101.566 40.1473C101.223 39.9555 100.986 39.6828 100.855 39.3294C100.723 38.976 100.658 38.5468 100.658 38.0419V33.0738H99.7943V31.5742H100.658V28.9235H102.975V31.5742H104.247V33.0738H102.975V37.8299C102.975 38.1025 103.041 38.2994 103.172 38.4206C103.313 38.5317 103.505 38.5872 103.748 38.5872C103.869 38.5872 103.985 38.5822 104.096 38.5721C104.207 38.5519 104.308 38.5367 104.399 38.5266V40.314C104.258 40.3342 104.056 40.3543 103.793 40.3745C103.531 40.4048 103.263 40.42 102.99 40.42Z" fill="white"/>
</svg>
