<svg width="455" height="219" viewBox="0 0 455 219" fill="none" xmlns="http://www.w3.org/2000/svg">
<path d="M262.697 138.971C254.555 132.325 250.491 126.324 250.504 120.969C250.435 119.603 250.635 118.236 251.088 116.977C251.542 115.717 252.236 114.598 253.117 113.707C255.153 111.844 257.689 110.907 260.262 111.069C264.795 111.069 270.674 113.404 277.939 118.074V89.7506C271.487 86.3381 264.502 84.5564 257.432 84.5203C253.234 84.28 249.041 85.0782 245.12 86.8636C241.2 88.649 237.64 91.3821 234.668 94.8874C231.697 98.3926 229.38 102.592 227.866 107.217C226.353 111.841 225.676 116.788 225.88 121.74C225.823 129.569 227.806 137.231 231.561 143.688C236.714 151.89 242.91 159.105 249.93 165.076C252.666 167.396 255.147 170.11 257.313 173.155C258.679 175.19 259.431 177.704 259.451 180.3C259.507 181.773 259.3 183.242 258.843 184.614C258.386 185.986 257.689 187.229 256.798 188.262C254.804 190.346 252.194 191.42 249.534 191.251C244.255 191.251 237.743 188.582 229.997 183.242V212.779C236.326 216.472 243.284 218.42 250.345 218.477C259.486 218.855 268.387 214.981 275.128 207.689C278.307 204.22 280.822 199.991 282.504 195.284C284.187 190.577 284.999 185.5 284.887 180.394C284.984 171.343 282.338 162.549 277.424 155.596C273.181 149.288 268.226 143.695 262.697 138.971" fill="white"/>
<path d="M207.133 84.4052V53H182.688L207.133 84.4052Z" fill="white"/>
<path d="M158.223 87.9312L182.669 119.313V215.046H207.134V87.9312H182.669H158.223Z" fill="white"/>
<path d="M48.7397 87.9312L25.6595 147.729H25.2636V87.9312H17.9991H0.896823L0.797852 119.336V215.069H25.2636V162.206H25.6595L46.4832 215.069H73.3639L49.3929 152.89L74.413 87.9312H48.7397Z" fill="white"/>
<path d="M109.092 88.0244L80.5093 215.069H105.45L109.666 193.821H135.577L139.694 215.069H165.09L136.527 88.0244H109.092ZM114.179 171.079C117.676 152.602 120.395 134.568 122.335 116.978H122.651C124.472 134.101 127.217 152.103 130.886 170.985L114.179 171.079Z" fill="white"/>
<path d="M434.849 157.84C439.614 155 443.49 150.445 445.914 144.834C448.381 139.328 449.678 133.199 449.695 126.972C449.695 115.001 446.356 105.513 439.679 98.5084C433.001 91.5035 423.909 88.0089 412.402 88.0245H383.918V215.163H408.364V157.256H408.78L428.574 215.163H454.406L434.849 157.84ZM408.364 142.779V112.612C414.183 112.798 418.34 114.16 420.834 116.698C423.328 119.235 424.582 123.454 424.595 129.353C424.595 138.055 419.185 142.53 408.364 142.779" fill="white"/>
<path d="M336.747 164.892H358.461V138.507H336.747V115.087H361.767V88.0483H312.281H287.835L312.281 119.43V215.163H361.925V188.031H336.747V164.892Z" fill="white"/>
<path d="M23.2582 20.1707H30.1763L37.4973 53.384L41.8631 20.1707H50.8297L42.0646 69H33.736L26.9187 36.1561L19.732 69H11.4035L2.63839 20.1707H11.605L15.9707 53.384L23.2582 20.1707ZM58.2488 20.1707H67.0139V69H58.2488V20.1707ZM61.7414 60.5036H85.4508V69H61.7414V60.5036ZM61.7414 40.4882H82.7642V48.9847H61.7414V40.4882ZM61.7414 20.1707H85.4508V28.6671H61.7414V20.1707ZM102.844 69H93.911V20.1707H102.844V69ZM113.319 20.1707H122.219L137.029 55.1639L136.189 56.2386V20.1707H144.383V68.9664H135.417L120.674 35.1822L121.513 34.0739V68.9664H113.319V20.1707Z" fill="white"/>
</svg>
